<?xml version="1.0" encoding="utf-8"?>
<!-- Generator: Adobe Illustrator 26.0.3, SVG Export Plug-In . SVG Version: 6.00 Build 0)  -->
<svg version="1.1" id="Layer_1" xmlns="http://www.w3.org/2000/svg" xmlns:xlink="http://www.w3.org/1999/xlink" x="0px" y="0px"
	 viewBox="0 0 100 100" style="enable-background:new 0 0 100 100;" xml:space="preserve">
<style type="text/css">
	.st0{fill:#F4C990;}
	.st1{fill:#CC6600;}
</style>
<g>
	<path class="st0" d="M95,41c0-0.39-86-0.39-86,0c0-16.02,19.25-29,43-29S95,24.98,95,41z"/>
</g>
<path class="st0" d="M87.81,73.46c-2.81,0.72-67.81,0.72-70.63,0C14.53,72.69,9,71.31,9,67.73C9,66.3,9,62,9,62h86c0,0,0,4.3,0,5.73
	C95,72.03,90.19,72.57,87.81,73.46z"/>
<g>
	<path d="M22.89,64.64c0.44-0.09,1.33-0.15,2.17-0.15c1.02,0,1.65,0.1,2.19,0.42c0.52,0.27,0.89,0.78,0.89,1.45
		c0,0.66-0.38,1.28-1.22,1.58v0.02c0.85,0.23,1.47,0.87,1.47,1.83c0,0.67-0.31,1.2-0.77,1.57c-0.54,0.43-1.44,0.67-2.92,0.67
		c-0.83,0-1.44-0.05-1.82-0.11V64.64z M24.56,67.48h0.55c0.88,0,1.35-0.36,1.35-0.91c0-0.56-0.43-0.86-1.19-0.86
		c-0.36,0-0.57,0.02-0.72,0.04V67.48z M24.56,70.77c0.17,0.02,0.36,0.02,0.65,0.02c0.76,0,1.43-0.29,1.43-1.07
		c0-0.75-0.67-1.04-1.51-1.04h-0.57V70.77z"/>
	<path d="M33.41,64.54v4.27c0,1.28,0.48,1.93,1.34,1.93c0.88,0,1.36-0.62,1.36-1.93v-4.27h1.67v4.16c0,2.29-1.16,3.38-3.09,3.38
		c-1.87,0-2.97-1.03-2.97-3.4v-4.14H33.41z"/>
	<path d="M41.44,64.64c0.54-0.09,1.34-0.15,2.23-0.15c1.1,0,1.87,0.17,2.4,0.58c0.44,0.35,0.68,0.87,0.68,1.55
		c0,0.95-0.67,1.6-1.31,1.83v0.03c0.52,0.21,0.8,0.7,0.99,1.39c0.23,0.84,0.46,1.8,0.6,2.09h-1.72c-0.12-0.21-0.3-0.81-0.52-1.73
		c-0.2-0.92-0.52-1.18-1.2-1.19H43.1v2.92h-1.66V64.64z M43.1,67.83h0.66c0.84,0,1.33-0.42,1.33-1.07c0-0.68-0.46-1.02-1.23-1.03
		c-0.41,0-0.64,0.03-0.76,0.05V67.83z"/>
	<path d="M56.31,71.62c-0.52,0.18-1.5,0.42-2.48,0.42c-1.35,0-2.33-0.34-3.01-1c-0.68-0.64-1.06-1.61-1.04-2.7
		c0.01-2.46,1.8-3.87,4.23-3.87c0.96,0,1.7,0.19,2.06,0.36l-0.35,1.34c-0.41-0.18-0.91-0.32-1.73-0.32c-1.4,0-2.45,0.79-2.45,2.4
		c0,1.53,0.96,2.43,2.33,2.43c0.38,0,0.69-0.04,0.83-0.11v-1.55h-1.14v-1.31h2.76V71.62z"/>
	<path d="M64.23,68.82H61.5v1.76h3.05v1.38h-4.73v-7.42h4.58v1.38H61.5v1.54h2.73V68.82z"/>
	<path d="M67.9,64.64c0.54-0.09,1.34-0.15,2.23-0.15c1.1,0,1.87,0.17,2.4,0.58c0.44,0.35,0.68,0.87,0.68,1.55
		c0,0.95-0.67,1.6-1.31,1.83v0.03c0.52,0.21,0.8,0.7,0.99,1.39c0.23,0.84,0.46,1.8,0.61,2.09h-1.72c-0.12-0.21-0.3-0.81-0.52-1.73
		c-0.2-0.92-0.52-1.18-1.2-1.19h-0.51v2.92H67.9V64.64z M69.56,67.83h0.66c0.84,0,1.33-0.42,1.33-1.07c0-0.68-0.46-1.02-1.23-1.03
		c-0.41,0-0.64,0.03-0.76,0.05V67.83z"/>
	<path d="M76.67,70.23c0.45,0.23,1.14,0.46,1.86,0.46c0.77,0,1.18-0.32,1.18-0.8c0-0.46-0.35-0.73-1.24-1.04
		c-1.23-0.43-2.04-1.11-2.04-2.19c0-1.27,1.06-2.23,2.81-2.23c0.84,0,1.45,0.18,1.89,0.37l-0.37,1.35c-0.3-0.14-0.83-0.35-1.55-0.35
		c-0.73,0-1.08,0.33-1.08,0.72c0,0.47,0.42,0.68,1.38,1.04c1.31,0.48,1.93,1.17,1.93,2.21c0,1.24-0.96,2.3-2.99,2.3
		c-0.85,0-1.68-0.22-2.1-0.45L76.67,70.23z"/>
</g>
<g>
	<g>
		<path class="st1" d="M8.5,56.83c1.02,0.52,2.6,1.05,4.22,1.05c1.75,0,2.67-0.72,2.67-1.82c0-1.05-0.8-1.65-2.82-2.37
			c-2.8-0.97-4.62-2.52-4.62-4.97c0-2.87,2.4-5.07,6.37-5.07c1.9,0,3.3,0.4,4.3,0.85l-0.85,3.07c-0.67-0.32-1.87-0.8-3.52-0.8
			c-1.65,0-2.45,0.75-2.45,1.62c0,1.07,0.95,1.55,3.12,2.37c2.97,1.1,4.37,2.65,4.37,5.02c0,2.82-2.17,5.22-6.8,5.22
			c-1.92,0-3.82-0.5-4.77-1.03L8.5,56.83z"/>
		<path class="st1" d="M25.12,47.1H20.6v-3.2h12.95v3.2h-4.6v13.65h-3.82V47.1z"/>
		<path class="st1" d="M45.6,53.63h-6.2v4h6.92v3.12H35.57V43.9h10.4v3.12H39.4v3.5h6.2V53.63z"/>
		<path class="st1" d="M53.07,60.75l-5.4-16.85h4.17l2.05,7.12c0.58,2,1.1,3.92,1.5,6.02h0.08c0.42-2.02,0.95-4.02,1.52-5.95
			l2.15-7.2h4.05l-5.67,16.85H53.07z"/>
		<path class="st1" d="M75.02,53.63h-6.2v4h6.92v3.12H65V43.9h10.4v3.12h-6.57v3.5h6.2V53.63z"/>
		<path class="st1" d="M82.65,43.63c-0.77,2.45-1.87,4.9-3,6.77l-2.3,0.2c0.75-2.12,1.4-4.55,1.72-6.75L82.65,43.63z"/>
		<path class="st1" d="M84.55,56.83c1.03,0.52,2.6,1.05,4.22,1.05c1.75,0,2.67-0.72,2.67-1.82c0-1.05-0.8-1.65-2.82-2.37
			C85.82,52.7,84,51.15,84,48.7c0-2.87,2.4-5.07,6.37-5.07c1.9,0,3.3,0.4,4.3,0.85l-0.85,3.07c-0.67-0.32-1.87-0.8-3.52-0.8
			s-2.45,0.75-2.45,1.62c0,1.07,0.95,1.55,3.12,2.37c2.97,1.1,4.37,2.65,4.37,5.02c0,2.82-2.17,5.22-6.8,5.22
			c-1.92,0-3.82-0.5-4.77-1.03L84.55,56.83z"/>
	</g>
</g>
</svg>
